<?xml version="1.0" encoding="utf-8"?>
<!-- Generator: Adobe Illustrator 24.0.3, SVG Export Plug-In . SVG Version: 6.00 Build 0)  -->
<svg version="1.1" id="Layer_1" xmlns="http://www.w3.org/2000/svg" xmlns:xlink="http://www.w3.org/1999/xlink" x="0px" y="0px"
	 viewBox="0 0 271 271" style="enable-background:new 0 0 271 271;" xml:space="preserve">
<style type="text/css">
	.st0{opacity:0.71;clip-path:url(#SVGID_2_);fill:#870303;}
	.st1{opacity:0.28;clip-path:url(#SVGID_4_);}
	.st2{fill:#FCFCFC;}
	.st3{fill-rule:evenodd;clip-rule:evenodd;fill:#870303;}
	.st4{fill-rule:evenodd;clip-rule:evenodd;fill:#E30613;}
	.st5{fill-rule:evenodd;clip-rule:evenodd;}
	.st6{fill-rule:evenodd;clip-rule:evenodd;fill:#FF0000;}
	.st7{fill-rule:evenodd;clip-rule:evenodd;fill:none;stroke:#FF4848;stroke-width:2;stroke-miterlimit:10;}
	.st8{fill-rule:evenodd;clip-rule:evenodd;fill:url(#SVGID_5_);}
	.st9{fill-rule:evenodd;clip-rule:evenodd;fill:url(#SVGID_6_);}
	.st10{fill-rule:evenodd;clip-rule:evenodd;fill:url(#SVGID_7_);}
	.st11{fill-rule:evenodd;clip-rule:evenodd;fill:url(#SVGID_8_);}
	.st12{fill-rule:evenodd;clip-rule:evenodd;fill:url(#SVGID_9_);}
	.st13{fill-rule:evenodd;clip-rule:evenodd;fill:url(#SVGID_10_);}
	.st14{fill:#5E5E5E;}
	.st15{fill:#FF6969;}
	.st16{fill:url(#SVGID_11_);}
	.st17{fill:url(#SVGID_12_);}
	.st18{fill:url(#SVGID_13_);}
	.st19{fill:url(#SVGID_14_);}
	.st20{fill:url(#SVGID_15_);}
	.st21{fill-rule:evenodd;clip-rule:evenodd;fill:url(#SVGID_16_);}
	.st22{fill-rule:evenodd;clip-rule:evenodd;fill:url(#SVGID_17_);}
	.st23{fill-rule:evenodd;clip-rule:evenodd;fill:url(#SVGID_18_);}
	.st24{fill-rule:evenodd;clip-rule:evenodd;fill:url(#SVGID_19_);}
	.st25{fill-rule:evenodd;clip-rule:evenodd;fill:url(#SVGID_20_);}
	.st26{fill-rule:evenodd;clip-rule:evenodd;fill:url(#SVGID_21_);}
	.st27{fill-rule:evenodd;clip-rule:evenodd;fill:url(#SVGID_22_);}
	.st28{fill-rule:evenodd;clip-rule:evenodd;fill:url(#SVGID_23_);}
	.st29{fill-rule:evenodd;clip-rule:evenodd;fill:url(#SVGID_24_);}
	.st30{fill-rule:evenodd;clip-rule:evenodd;fill:url(#SVGID_25_);}
	.st31{fill-rule:evenodd;clip-rule:evenodd;fill:url(#SVGID_26_);}
	.st32{fill:#2D2D2D;}
	.st33{fill-rule:evenodd;clip-rule:evenodd;fill:url(#SVGID_27_);}
	.st34{fill-rule:evenodd;clip-rule:evenodd;fill:url(#SVGID_28_);}
	.st35{fill-rule:evenodd;clip-rule:evenodd;fill:url(#SVGID_29_);}
	.st36{fill-rule:evenodd;clip-rule:evenodd;fill:url(#SVGID_30_);}
	.st37{fill-rule:evenodd;clip-rule:evenodd;fill:url(#SVGID_31_);}
	.st38{fill-rule:evenodd;clip-rule:evenodd;fill:url(#SVGID_32_);}
	.st39{fill-rule:evenodd;clip-rule:evenodd;fill:url(#SVGID_33_);}
	.st40{fill-rule:evenodd;clip-rule:evenodd;fill:url(#SVGID_34_);}
	.st41{fill-rule:evenodd;clip-rule:evenodd;fill:url(#SVGID_35_);}
	.st42{fill-rule:evenodd;clip-rule:evenodd;fill:url(#SVGID_36_);}
	.st43{fill-rule:evenodd;clip-rule:evenodd;fill:url(#SVGID_37_);}
	.st44{fill-rule:evenodd;clip-rule:evenodd;fill:url(#SVGID_38_);}
	.st45{fill:#595959;}
	.st46{fill-rule:evenodd;clip-rule:evenodd;fill:url(#SVGID_39_);}
	.st47{fill-rule:evenodd;clip-rule:evenodd;fill:url(#SVGID_40_);}
	.st48{fill-rule:evenodd;clip-rule:evenodd;fill:url(#SVGID_41_);}
	.st49{fill-rule:evenodd;clip-rule:evenodd;fill:url(#SVGID_42_);}
	.st50{fill-rule:evenodd;clip-rule:evenodd;fill:url(#SVGID_43_);}
	.st51{fill:#FF4848;}
	
		.st52{fill-rule:evenodd;clip-rule:evenodd;fill:none;stroke:#FF4848;stroke-width:5;stroke-linecap:round;stroke-linejoin:round;stroke-miterlimit:10;}
	.st53{fill:#870303;}
	.st54{fill-rule:evenodd;clip-rule:evenodd;fill:url(#SVGID_44_);}
	.st55{fill-rule:evenodd;clip-rule:evenodd;fill:url(#SVGID_45_);}
	.st56{fill-rule:evenodd;clip-rule:evenodd;fill:url(#SVGID_46_);}
	.st57{fill-rule:evenodd;clip-rule:evenodd;fill:url(#SVGID_47_);}
	.st58{fill-rule:evenodd;clip-rule:evenodd;fill:url(#SVGID_48_);}
	.st59{fill-rule:evenodd;clip-rule:evenodd;fill:url(#SVGID_49_);}
	.st60{fill:#444444;}
	.st61{fill:url(#SVGID_50_);}
	.st62{fill:url(#SVGID_51_);}
	.st63{fill:url(#SVGID_52_);}
	.st64{fill:url(#SVGID_53_);}
	.st65{fill:url(#SVGID_54_);}
	.st66{fill:url(#SVGID_55_);}
	.st67{fill:url(#SVGID_56_);}
	.st68{fill:url(#SVGID_57_);}
	.st69{fill:url(#SVGID_58_);}
	.st70{fill:url(#SVGID_59_);}
	.st71{fill:url(#SVGID_60_);}
	.st72{fill:url(#SVGID_61_);}
	.st73{fill:url(#SVGID_62_);}
	.st74{fill:url(#SVGID_63_);}
	.st75{fill:url(#SVGID_64_);}
	.st76{fill:url(#SVGID_65_);}
	.st77{fill:url(#SVGID_66_);}
	.st78{fill:url(#SVGID_67_);}
	.st79{fill:url(#SVGID_68_);}
	.st80{fill:url(#SVGID_69_);}
	.st81{fill:url(#SVGID_70_);}
	.st82{fill:url(#SVGID_71_);}
	.st83{fill:url(#SVGID_72_);}
	.st84{fill:url(#SVGID_73_);}
	.st85{fill:url(#SVGID_74_);}
	.st86{fill:url(#SVGID_75_);}
	.st87{fill:url(#SVGID_76_);}
	.st88{fill:url(#SVGID_77_);}
	.st89{fill:url(#SVGID_78_);}
	.st90{fill:url(#SVGID_79_);}
	.st91{fill:url(#SVGID_80_);}
	.st92{fill:url(#SVGID_81_);}
	.st93{fill:url(#SVGID_82_);}
	.st94{fill:url(#SVGID_83_);}
	.st95{fill:url(#SVGID_84_);}
	.st96{fill:url(#SVGID_85_);}
	.st97{fill:#FFFFFF;}
	.st98{fill:url(#SVGID_86_);}
	.st99{fill:url(#SVGID_87_);}
	.st100{fill:url(#SVGID_88_);}
	.st101{fill:url(#SVGID_89_);}
	.st102{fill:url(#SVGID_90_);}
	.st103{fill:url(#SVGID_91_);}
	.st104{fill:url(#SVGID_92_);}
	.st105{fill:url(#SVGID_93_);}
	.st106{fill:url(#SVGID_94_);}
	.st107{fill:url(#SVGID_95_);}
	.st108{fill:url(#SVGID_96_);}
	.st109{fill:url(#SVGID_97_);}
	.st110{fill:none;stroke:#444444;stroke-width:0.5;stroke-miterlimit:10;}
	.st111{opacity:0.41;clip-path:url(#SVGID_99_);fill:#870303;}
	.st112{fill:none;stroke:#FCFCFC;stroke-width:0.5;stroke-miterlimit:10;}
	.st113{opacity:0.41;clip-path:url(#SVGID_101_);fill:#444444;}
	.st114{opacity:0.71;clip-path:url(#SVGID_103_);fill:#870303;}
</style>
<g>
	<g>
		<path class="st60" d="M95,127.7c0.9-1.2,1.2-1.3,1.4-0.8c0.4,0.8-4,6.1-6,7.1c-3,1.8-5.3-0.7-4.6-5.1c0.1-0.7,0.1-1.3,0.1-1.3
			c-0.2,0-2.6,3.1-3.9,5.1c-0.9,1.3-1.5,1.9-1.9,1.7c-0.9-0.4-0.9-1.3,0-8.8c0.4-2.9,0.4-4.5,0.4-4.6c-0.5-0.4-3.8,3.7-8,10.4
			c-1.5,2.3-2.9,4.5-3.2,4.8c-0.6,0.6-1.3,0.6-1.9,0c-0.4-0.4-0.4-0.8-0.4-3.6c0.2-3.5,0.7-7.9,1.3-8.9c0.4-0.9,1.1-1.2,1.8-0.6
			c0.4,0.4,0.4,0.6,0.4,2.1c-0.1,1-0.3,2.8-0.4,4.1c-0.2,1.3-0.4,2.4-0.3,2.5c0.1,0,0.8-1.1,1.7-2.4c2.9-4.6,5.1-7.6,6.7-9.3
			c1.4-1.4,1.7-1.7,2.4-1.7c0.5,0,1,0.3,1.3,0.6c0.5,0.6,0.5,0.7,0.4,3.7c0,1.8-0.2,4.1-0.4,5.6c-0.3,1.4-0.4,2.5-0.4,2.4
			c0.1-0.2,1-1.3,2-2.5c1.9-2.5,2.7-3.2,3.4-2.9c0.8,0.3,1,1.1,0.7,3.8c-0.1,1.4-0.1,2.9,0,3.2c0.3,0.9,1.2,1.1,2.4,0.3
			c1.1-0.6,3.7-3.2,4.9-5L95,127.7z"/>
		<path class="st60" d="M110.4,125.6c0,1.3-6.9,5.6-10.4,6.5c-1.4,0.4-1.5,0.4-2.3,0.2c-1.2-0.4-2-1.1-2.5-2.3
			c-0.4-1.1-0.4-1.5-0.4-3.8c0.2-3.4,0.9-4.8,2.3-4.4c0.8,0.2,1,0.8,0.4,2.5c-1.9,6.1,0.1,8.1,5.4,5.6c2.5-1.3,4.2-2.3,5.8-3.8
			C110.1,125.1,110.4,125,110.4,125.6z M99.2,118.3c-1.1,1.2-1.6,1.3-2.2,0.7c-0.2-0.2-0.4-0.5-0.4-0.8c0-1.8,2.4-3.7,3.4-2.7
			C100.6,116.1,100.2,117.1,99.2,118.3L99.2,118.3z"/>
		<path class="st60" d="M136.2,125.6c0.3,0.1,0.4,0.4,0.4,0.6c0,0.3-0.6,0.7-2.3,1.6c-1.9,0.9-6.9,4.1-8.9,5.7
			c-0.4,0.3-0.4,0.4,0.1,1.6c0.7,2.3,1,4.6,0.9,7.8c-0.5,12.9-8.4,26.9-17.5,31.3c-3,1.4-5,1.8-7,1.2c-1.4-0.4-2.4-1.3-3.2-2.9
			c-0.5-1.2-0.6-1.5-0.6-3.5c0.1-6,4.3-15.1,10.4-22.3c2.8-3.3,7.8-8,13.3-12.3l0.9-0.8l-0.5-1.1c-0.3-0.5-1.2-1.6-2-2.3
			c-2.2-2.1-4.9-3-8.8-3c-1.4,0-1.8-0.1-2.4-0.5c-1.3-1-1-2.1,1-4.1c0.6-0.6,0.8-1.1,0.6-1.2c-0.2-0.1-1.8-0.3-3.6-0.4
			c-4.2-0.3-5.2-0.7-4.8-2.1c0.1-0.4,0.4-0.6,1-0.7c0.4-0.1,1.1,0,1.3,0.1c0.3,0.2,1.5,0.4,2.9,0.4c4,0.2,6,1,6,2.6
			c0,0.9-0.3,1.7-1.1,2.6l-0.7,0.8l1.3,0.2c4.7,0.4,8.5,2.7,10.6,6.2c0.4,0.7,0.9,1.2,1.1,1.2c0.1,0,0.8-0.4,1.7-1.1
			c3.8-2.7,9.3-5.6,10.2-5.5H136.2z M123.2,150.3c0.9-3.7,1.3-6.2,1.2-9.6c-0.2-2.7-0.6-5.4-1.1-5.4c-0.2,0-3.8,3.1-7.2,6.2
			c-4.5,4.1-7.7,7.6-10.5,11.8c-6.2,9.4-7.8,18.9-3.4,20.3c1,0.4,1.9,0.3,3.4-0.1C112.8,171.5,120.2,161.7,123.2,150.3L123.2,150.3z
			"/>
	</g>
	<g>
		<linearGradient id="SVGID_2_" gradientUnits="userSpaceOnUse" x1="144.3007" y1="147.061" x2="144.3007" y2="105.9368">
			<stop  offset="0.1542" style="stop-color:#870303"/>
			<stop  offset="0.3024" style="stop-color:#970C0C"/>
			<stop  offset="0.5918" style="stop-color:#C12424"/>
			<stop  offset="0.966" style="stop-color:#FF4848"/>
		</linearGradient>
		<path style="fill:url(#SVGID_2_);" d="M164.8,146c-0.2-0.4-0.5-0.8-0.9-1.2l0,0c-0.2-0.2-0.3-0.4-0.5-0.5
			c-1.9-1.8-5.6-4.1-10.6-6.6c-4.1-2-7.1-3.2-11.3-4.6c-4-1.3-5.1-1.6-5.4-1.8l-0.3-0.2l0.3,0c2.1,0.5,5.8,0.3,8.6-0.4
			c3.1-0.8,7.2-2.8,10.3-5.1c1.4-1,3.9-3.5,4.8-4.7c2-2.8,3-5.3,2.8-7.8c-0.1-1.5-0.4-2.4-1.1-3.5c-1.3-1.9-3.4-3.1-6.3-3.5
			c-1.5-0.2-4.5-0.2-6.3,0.1c-5.8,1-11.9,3.7-16.8,7.4c-3.5,2.6-6.4,5.7-7.6,8.3c-1.3,2.8-1.1,5.3,0.7,6.3c1,0.6,2.6,0.3,3-0.4
			c0.1-0.2,0.1-0.4,0.1-0.5c-0.1-0.4-0.4-0.4-1.2-0.1c-1.2,0.3-1.8,0.1-2.2-0.8c-0.4-0.7-0.5-1.4-0.2-2.3
			c0.9-4.5,7.6-10.5,15.5-14.1c8.9-4,16.3-4.4,19.8-0.9c1.2,1.2,1.7,2.6,1.7,4.4c0,1.3-0.3,2.4-1,3.9c-0.8,1.5-1.6,2.6-2.9,4.1
			c-3.1,3.2-6.9,5.5-12,7.2c-3,1-5.4,1.5-7.8,1.5c-1.5,0-1.9,0-1.9-0.4c0-0.2,1.1-4.9,1.9-8.7c1.1-4.6,1.1-4.8,0.6-4.9
			c-0.5-0.1-0.7,0.2-0.9,1.5c-0.2,1.5-2.7,11.2-2.9,11.6c-0.1,0.2-0.1,0.4-0.1,0.5c0,0.1-0.1,0.4-0.3,0.5c-0.3,0.3-0.3,0.7-0.1,1
			c0,0.1-0.1,1-0.6,3c-1.5,5.5-1.8,7.4-1.8,8.9c0,1,0.4,1.4,0.9,0.9c0.4-0.4,1.2-3.2,2.3-8.8c0.3-1.6,0.6-2.9,0.6-2.9
			c0,0,4.5,1.4,8.1,2.6c7.9,2.6,15.9,6.7,19.3,9.7c0.1,0.1,0.1,0.1,0.2,0.1c0,0,0.1,0.1,0.1,0.1c0.2,0.2,0.3,0.3,0.4,0.5
			c0.6,0.7,0.9,1.1,0.9,1.6h0.7C165.1,146.7,165,146.4,164.8,146z"/>
		<linearGradient id="SVGID_4_" gradientUnits="userSpaceOnUse" x1="160.2727" y1="134.0141" x2="160.2727" y2="125.2669">
			<stop  offset="0.1542" style="stop-color:#870303"/>
			<stop  offset="0.3024" style="stop-color:#970C0C"/>
			<stop  offset="0.5918" style="stop-color:#C12424"/>
			<stop  offset="0.966" style="stop-color:#FF4848"/>
		</linearGradient>
		<path style="fill:url(#SVGID_4_);" d="M163.4,130.9c-0.1,0.1-0.2,0.2-0.3,0.2c-0.7,0.6-1.5,1.1-2.7,1.7c-2.7,1.3-3.7,0.2-2.7-2.9
			c0.3-0.9,0.2-1.2-0.2-1.3c-0.7-0.2-1.1,0.5-1.2,2.2c0,1.1,0,1.4,0.2,1.9c0.3,0.6,0.7,1,1.3,1.2c0.4,0.1,0.4,0.1,1.2-0.1
			c1.1-0.3,2.8-1.2,4-2c0.8-0.5,1.3-1.1,1.3-1.3C164.3,130.2,164.1,130.3,163.4,130.9z M158.9,125.4c-0.5-0.5-1.7,0.4-1.7,1.4
			c0,0.1,0.1,0.3,0.2,0.4c0.3,0.3,0.6,0.2,1.1-0.4v0C159.1,126.2,159.2,125.7,158.9,125.4z"/>
		<linearGradient id="SVGID_5_" gradientUnits="userSpaceOnUse" x1="168.3192" y1="147.061" x2="168.3192" y2="127.0377">
			<stop  offset="0.1542" style="stop-color:#870303"/>
			<stop  offset="0.3024" style="stop-color:#970C0C"/>
			<stop  offset="0.5918" style="stop-color:#C12424"/>
			<stop  offset="0.966" style="stop-color:#FF4848"/>
		</linearGradient>
		<path style="fill:url(#SVGID_5_);" d="M173.5,131c-1.1,0.9-2.6,2.4-3.7,3.8c-0.4,0.5-0.7,0.8-0.8,0.8c-0.1-0.1-0.7-6.4-0.7-7.1
			c0-1.1-0.2-1.4-0.5-1.4c-0.1,0.1-0.4,0.1-0.4,0.2c0,0.1-0.3,0.5-0.5,1c-0.2,0.4-0.5,1.1-0.8,1.5l-0.4,0.7l-0.3-0.4
			c-0.4-0.8-1.1-0.8-1.7-0.1c-0.3,0.3-0.5,0.8-0.7,1.3c-0.1,0.2-0.1,0.5-0.2,0.7c-0.1,0.7-0.1,1.4,0.1,1.8c0.3,0.4,0.8,0.5,1.3,0.3
			c0.5-0.2,1.4-1.6,2.4-3.4c0.3-0.6,0.6-1.1,0.6-1.1c0.1,0,0.1,0.2,0.1,0.5c0,0.3,0.1,1.1,0.2,1.9c0.1,0.8,0.2,2.2,0.4,3.2l0.2,1.9
			l-1,1.4c-1.5,2.1-2.7,4.1-3.8,6c-0.1,0.2-0.2,0.4-0.3,0.6c0,0-0.1,0.1-0.1,0.1c-0.4,0.7-0.7,1.4-1.1,2.1c0.3,0,0.5,0,0.8,0
			c0.2-0.5,0.5-1.1,0.8-1.6c0.1-0.2,0.3-0.5,0.4-0.7c0,0,0,0,0,0c0.2-0.4,0.5-0.9,0.8-1.3c0.6-1.1,3.5-5.4,3.5-5.4
			c0.1,0,0.3,4.1,0.2,6l-0.1,0c0,0.3,0,0.5,0,0.8c-0.1,0.8-0.1,1.5-0.2,2.2h0.3c0.2,0,0.5,0,0.7,0c0.1-0.7,0.1-1.4,0.1-2.2
			c0.1-1.6,0.1-3.4,0-5.4l-0.1-2.9l0.5-0.6c1.1-1.4,2.6-3.1,3.8-4.2c0.4-0.4,0.8-0.6,1.1-0.9c0,0,0.1-0.1,0.1-0.1l0-0.1l0.1-0.6
			C174.5,130.3,174.1,130.6,173.5,131z M164.9,131.9L164.9,131.9c-0.2,0.3-0.5,0.6-0.7,0.8l-0.3,0.3l0.1-0.3
			c0.2-0.6,0.6-1.6,0.7-1.7c0.1,0,0.2,0.1,0.3,0.2C165.2,131.4,165.2,131.4,164.9,131.9z"/>
		<linearGradient id="SVGID_6_" gradientUnits="userSpaceOnUse" x1="178.1051" y1="141.3733" x2="178.1051" y2="113.8227">
			<stop  offset="0.1542" style="stop-color:#870303"/>
			<stop  offset="0.3024" style="stop-color:#970C0C"/>
			<stop  offset="0.5918" style="stop-color:#C12424"/>
			<stop  offset="0.966" style="stop-color:#FF4848"/>
		</linearGradient>
		<path style="fill:url(#SVGID_6_);" d="M182.5,131.3c-0.1,0.1-0.1,0.3-0.2,0.4c-0.6,1-1.5,2.2-1.8,2.6c-0.6,0.5-0.6,0.4-0.5-1.8
			c0.1-1.7,0.1-2-0.1-2.3c-0.2-0.5-0.7-0.6-1.1-0.4c-0.9,0.4-3,4.1-4.3,7.4c-0.3,0.6-0.5,1.1-0.5,1.1c0-0.4,0.4-4.4,0.7-7.3l0-0.1
			l0-0.1l0.1-0.6l0-0.3c0.1-0.6,0.1-1.1,0.2-1.4c0.4-2.9,0.7-5.1,1-7.1c0-0.2,0.1-0.4,0.1-0.5c0.3-1.5,0.6-2.9,1.1-4.2
			c0.7-2.5,0.8-2.7,0.6-2.9c-0.3-0.3-0.5,0.1-1.1,1.9c-0.3,1-0.8,2.6-1.1,3.7c-0.2,0.7-0.4,1.2-0.5,1.5c-0.1,0.2-0.1,0.4-0.1,0.5
			c-0.1,0.3,0,0.4,0.1,0.5c0.1,0.1,0,0.8-0.3,2.2c-0.4,2.3-0.8,4.6-1.1,6.7c0,0.3-0.1,0.5-0.1,0.8c-0.2,1.8-0.4,3.5-0.5,5.2
			c-0.2,2.9-0.1,4.1,0.2,4.3c0.2,0.2,0.8,0.1,1-0.1c0.1,0,0.5-1,0.9-2.2c1-2.9,2.7-6.4,3.6-7.5l0.2-0.3v1.4c0,1.5,0,2.2,0.4,2.5
			c0.5,0.6,1.3,0.1,2.5-1.5c0.1-0.1,0.2-0.3,0.3-0.4c0.7-1.1,1.4-2.4,1.3-2.5C183.2,130.4,183,130.5,182.5,131.3z"/>
		<linearGradient id="SVGID_7_" gradientUnits="userSpaceOnUse" x1="188.9746" y1="142.8012" x2="188.9746" y2="108.7388">
			<stop  offset="0.1542" style="stop-color:#870303"/>
			<stop  offset="0.3024" style="stop-color:#970C0C"/>
			<stop  offset="0.5918" style="stop-color:#C12424"/>
			<stop  offset="0.966" style="stop-color:#FF4848"/>
		</linearGradient>
		<path style="fill:url(#SVGID_7_);" d="M212,116.3L212,116.3c-0.6-0.6-1.3-0.8-2-1c-0.7-0.1-1.3-0.2-2-0.2c-1.3,0-2.6,0.1-3.8,0.3
			c-2.5,0.3-4.9,0.9-7.3,1.4c-3.7,0.8-7.5,1.7-11.2,2.6c0.1-0.6,0.2-1,0.2-1c0,0,0.1-0.7,0.1-0.7c-0.1,0,0.5-3,0.7-3.4
			c0.1-0.2-0.1-0.5-0.4-0.4c-0.2,0-0.3,0.2-1.4,3.5c-0.1,0.3-0.3,1.4-0.4,1.5c0,0.3-0.2,0.6-0.1,0.7c-0.7,0.2-1.4,0.4-2.1,0.5
			c-2.2,0.5-4.4,0.8-6.6,1c-0.2,0-0.4,0-0.7,0.1c-0.1,0-0.2,0-0.4,0c-1.1,0.1-2.2,0.1-3.3,0c-1.2,0-2.4-0.2-3.5-0.7
			c-1.1-0.5-1.9-1.5-2.1-2.6c-0.2-1.1,0-2.3,0.5-3.4c0.5-1.1,1.1-2.1,2-2.9c0.5-0.4,0.9-0.7,1.5-1c0.5-0.2,1.1-0.3,1.5-0.1
			c0.1,0.1,0.3,0.1,0.5,0c0.4-0.1,0.7-0.5,0.6-0.9c-0.1-0.5-0.5-0.7-1-0.6l-0.1,0c-0.8,0.1-1.4,0.5-2,0.9c-0.5,0.4-1,0.8-1.4,1.3
			c-0.9,1-1.6,2-2.1,3.1c-0.5,1.1-0.8,2.5-0.5,3.7c0.1,0.6,0.4,1.2,0.8,1.8c0.4,0.5,1,0.9,1.5,1.1c1.1,0.5,2.4,0.7,3.6,0.8
			c1.1,0.1,2.1,0.1,3.2,0c0.2,0,0.4,0,0.6,0c0.2,0,0.3,0,0.5,0c2.3-0.2,4.5-0.5,6.8-0.9c0.7-0.1,1.4-0.3,2.1-0.4
			c-0.1,0.3-0.2,0.9-0.4,1.8c-0.9,3.5-1.5,6.6-2.1,9.8c-0.1,0.5-0.2,1-0.3,1.5c-0.3,1.5-0.5,3.1-0.8,4.7c-0.6,4.2-0.6,4.5-0.4,4.8
			c0.2,0.3,0.6,0.2,0.7-0.2c0-0.1,1-5.6,2.2-12.1c0.8-4.5,1.5-8.3,1.9-10.4c3.8-0.8,7.6-1.6,11.5-2.4c2.4-0.5,4.8-0.9,7.2-1.1
			c1.2-0.1,2.4-0.1,3.6-0.1c1.1,0.1,2.3,0.4,2.9,1c0.1,0.1,0.1,0.1,0.1,0.1c0.4,0.3,0.9,0.3,1.2-0.1
			C212.4,117.1,212.4,116.5,212,116.3z"/>
	</g>
	<linearGradient id="SVGID_8_" gradientUnits="userSpaceOnUse" x1="66.7226" y1="152.9269" x2="212.3952" y2="152.9269">
		<stop  offset="0.1542" style="stop-color:#870303"/>
		<stop  offset="0.3024" style="stop-color:#970C0C"/>
		<stop  offset="0.5918" style="stop-color:#C12424"/>
		<stop  offset="0.966" style="stop-color:#FF4848"/>
	</linearGradient>
	<path style="fill:url(#SVGID_8_);" d="M212.4,150.3c0,0.1-0.1,0.1-0.1,0.1h0c-3.1-0.3-6.1-0.7-9.1-1.1l-4.6-0.6l-4.6-0.4
		c-3-0.2-6.1-0.5-9.1-0.8l-9.1-0.3c-1.3,0-2.6-0.2-3.9-0.2c-0.2,0-0.4,0-0.7,0h-0.3l-2.8,0h-2.2c-0.2,0-0.5,0-0.7,0
		c-2.6,0-5.2-0.1-7.7,0l-9.2,0.3c-1.5,0-3,0.1-4.6,0.2l-4.6,0.3c-12.2,0.9-24.4,2.5-36.4,4.7l-9,1.8c-3,0.7-6,1.3-9,2
		c-6,1.4-11.9,3-17.8,4.8c-0.1,0-0.1,0-0.1-0.1c0-0.1,0-0.1,0.1-0.1c5.8-2,11.8-3.7,17.7-5.2c3-0.8,6-1.5,9-2.2l9-2
		c12.1-2.4,24.2-4.2,36.5-5.3l4.6-0.4c1.5-0.1,3.1-0.3,4.6-0.4l9.2-0.5c1.5-0.1,3.1-0.1,4.6-0.1l4,0h1l4,0h0.2c0.3,0,0.5,0,0.8,0
		c1.3,0,2.6,0.1,3.9,0.2l9.2,0.6c3.1,0.4,6.1,0.7,9.2,1.1l4.6,0.6l4.5,0.9c3,0.6,6,1.2,9,1.9C212.4,150.1,212.4,150.2,212.4,150.3z"
		/>
</g>
</svg>
